<svg xmlns="http://www.w3.org/2000/svg" viewBox="0 0 512 512"><defs><path d="M0 0h512v512H0V0Z" id="a"/></defs><g fill-rule="nonzero" fill="none"><path d="M429.433 203.31c-.8-17.584 1.599-33.17-6.394-46.357C403.858 124.183 355.904 105 259.997 105v2.797H258h1.998V105c-95.907 0-146.258 19.183-165.44 52.352-7.592 13.588-6.793 28.774-7.992 46.358-.8 13.987-7.193 28.774-4.396 44.76 3.197 20.78 4.396 41.561 7.593 60.744 2.398 15.586 23.977 28.773 25.975 43.56 5.594 40.763 47.953 59.546 143.86 59.546v3.197H257.2 259.997v-3.197c95.907 0 136.668-18.783 141.863-59.546 1.998-15.186 21.978-27.974 24.376-43.56 3.197-19.183 4.396-39.964 7.593-60.745 2.797-15.985-3.597-31.171-4.396-45.159Z" fill="#EFCCA3"/><path d="M258.399 217.697c17.183.4 29.171 11.19 40.36 21.18 13.188 11.59 35.566 19.583 44.757 29.574 9.191 9.99 21.18 19.982 25.575 35.567 4.396 15.586 5.595 35.568 5.595 40.763 0 5.196 2.797 3.997 10.79 0 18.781-9.191 39.561-33.969 39.561-33.969-2.397 15.586-22.778 29.573-24.776 44.36-4.795 40.763-44.357 60.345-142.262 60.345h-.4 2.398" fill="#CCAC8D"/><path d="M321.538 186.526c3.596 12.388 16.384 54.35-8.392 40.363 0 0 10.39 5.994 16.783 28.774 6.794 22.779 23.178 25.576 23.178 25.576s26.774 5.196 46.755-11.989c16.783-14.387 19.58-39.963 12.388-59.546-7.193-19.182-19.981-25.177-38.763-29.173-18.782-4.396-56.345-7.993-51.95 5.995Z" fill="#CCAC8D"/><g transform="translate(333.925 196.916)"><ellipse fill="#000" cx="35.166" cy="35.168" rx="35.166" ry="35.168"/><ellipse fill="#FFF" cx="25.975" cy="19.582" rx="9.191" ry="9.192"/></g><path d="M315.543 230.486s31.57 21.58 48.753 42.76c17.183 21.181 16.784 25.178 16.784 25.178l-12.388 5.594s-17.583-33.17-39.162-45.558c-21.979-12.389-24.377-22.78-24.377-22.78l10.39-5.194Z" fill="#EFCCA3"/><path d="M259.597 217.697c-17.183.4-29.97 11.19-41.56 21.18-13.187 11.59-36.364 19.583-45.555 29.574-9.191 9.99-21.58 19.982-25.975 35.567-4.396 15.586-5.994 35.568-5.994 40.763 0 5.196.799 5.595-10.79 0-18.782-8.792-39.561-33.969-39.561-33.969 2.397 15.586 22.777 29.573 24.776 44.36 5.594 40.763 45.156 60.345 143.061 60.345H259.997" fill="#CCAC8D"/><path d="M352.308 285.236c-19.182-23.579-49.952-45.559-92.71-45.559h-.4c-42.759 0-73.529 21.98-92.71 45.559-19.981 24.377-18.383 33.969-18.383 57.147 0 83.924 29.572 59.946 49.153 70.336 19.98 9.991 40.76 6.794 61.94 6.794h.4c21.579 0 41.959 2.798 61.94-7.193 19.58-9.991 49.152 14.786 49.152-69.137.4-23.18 1.598-33.57-18.382-57.947Z" fill="#56332B"/><path d="M257.6 260.458s-2.798 38.765-8.392 46.358l10.39-2.398-1.999-43.96Z" fill="#442823"/><path d="M260.397 260.458s2.797 38.765 8.392 46.358l-10.39-2.398 1.998-43.96Z" fill="#442823"/><path d="M226.83 251.267c-3.997-9.192 10.39-23.979 33.167-24.378 22.778 0 37.164 14.786 33.168 24.378-3.996 9.59-18.382 12.388-33.168 12.788-14.386-.4-29.172-3.197-33.168-12.788Z" fill="#56332B"/><path d="M259.997 260.458c0-1.598 13.587-1.998 20.78-6.794 0 0-14.786 4.796-17.983 2.798-3.197-1.599-3.996-6.394-3.996-6.394s-1.199 4.795-3.596 6.394c-2.798 1.598-19.581-2.798-19.581-2.798s22.378 5.595 22.378 6.794c0 1.2-.4 5.195-.4 7.993 0 9.99 0 34.768 1.599 36.766 2.398 3.597 1.598-26.775 1.598-36.766-.4-3.197-.4-6.394-.799-7.993Z" fill="#000"/><path d="M260.796 314.01c6.794 0 18.782 4.795 29.572 12.388-10.39-11.59-22.778-19.582-29.572-19.582-7.193 0-22.378 8.792-33.168 21.58 11.19-8.792 25.576-14.387 33.168-14.387Z" fill="#7F4A41"/><path d="M257.999 384.745c-15.185 0-29.97-4.796-43.558-8.393-2.797-.799-5.594 1.2-8.392.4-25.175-7.993-45.556-21.58-57.944-38.765v3.997c0 83.923 29.572 60.345 49.153 70.336 19.98 9.99 40.76 6.793 61.94 6.793h.4c21.579 0 41.959 2.798 61.94-7.193 19.58-9.99 49.152 14.387 49.152-69.537 0-3.197 0-6.394.4-9.191-11.59 18.783-32.769 33.57-59.143 42.361-2.398.8-7.992-1.199-10.39-.8-14.386 4.797-27.174 9.992-43.558 9.992Z" fill="#442823"/><path d="M220.036 339.586s-9.99 29.973-3.197 43.16l-9.191-3.996s6.793-30.372 12.388-39.164ZM299.16 339.586s9.99 29.973 3.196 43.16l9.191-3.996s-7.193-30.372-12.388-39.164Z" fill="#442823"/><path d="M194.46 186.526c-3.596 12.388-16.384 54.35 8.392 40.363 0 0-10.39 5.994-16.783 28.774-6.394 22.779-23.178 25.576-23.178 25.576s-26.774 5.196-46.755-11.989c-16.783-14.387-19.58-39.963-12.388-59.546 7.193-19.582 19.981-25.177 38.763-29.173 18.782-4.396 55.946-7.993 51.95 5.995Z" fill="#CCAC8D"/><path d="M259.597 306.816c10.79 0 44.358 23.179 44.757 51.553v-1.599c0-29.573-27.174-53.151-44.757-53.151-17.582 0-44.756 23.978-44.756 53.151v1.599c.4-28.374 33.967-51.553 44.756-51.553Z" fill="#000"/><g transform="translate(244.727 239.026)" fill="#331712"><ellipse transform="rotate(-14.46 22.097 6.653)" cx="22.097" cy="6.653" rx="3.197" ry="5.994"/><ellipse transform="rotate(17.235 4.83 6.673)" cx="4.829" cy="6.673" rx="3.197" ry="5.995"/></g><g transform="translate(113.739 196.916)"><ellipse fill="#000" cx="35.166" cy="35.168" rx="35.166" ry="35.168"/><ellipse fill="#FFF" cx="44.357" cy="19.582" rx="9.191" ry="9.192"/></g><path d="M269.987 232.484c0-.4-9.19 3.996-11.588 4.396-2.398-.4-11.59-4.796-11.59-4.396H269.988Z" fill="#7F4A41"/><path d="M200.055 230.486s-31.57 21.58-48.753 42.76c-17.183 21.181-16.783 25.178-16.783 25.178l12.388 5.594s17.583-33.17 39.162-45.558c21.579-12.389 24.376-22.78 24.376-22.78l-10.39-5.194Z" fill="#EFCCA3"/><path d="M130.922 166.544s-10.79 29.573-34.766 41.962c0 0 37.563-4.396 34.766-41.962ZM383.078 166.544s10.79 29.573 34.766 41.962c0 0-37.563-4.396-34.766-41.962ZM314.744 221.694s-23.577-24.778-55.147-25.577h.8c-31.97.8-55.147 25.577-55.147 25.577 27.573-19.183 51.15-18.783 55.147-18.783-.4 0 26.774-.4 54.347 18.783ZM287.17 169.74s-11.988-16.784-27.972-17.183h.8c-11.99.4-27.574 17.184-27.574 17.184 13.587-13.188 27.573-12.788 27.573-12.788s13.187-.4 27.174 12.788ZM148.905 292.429s-18.782 9.192-32.369 3.597h-.4c-11.988-6.794-17.982-27.175-17.982-27.175s11.988 35.967 50.75 23.578ZM367.893 292.429s18.781 9.192 32.368 3.597c15.985-6.794 18.382-27.175 18.382-27.175s-11.988 35.967-50.75 23.578Z" fill="#CCAC8D"/><path d="M170.484 164.546c10.39-1.998 27.573-2.398 41.16 1.998 17.183 5.994 3.197 27.974 6.793 29.173 3.597 1.2 8.392-15.186 40.361-13.587 32.369 1.598 35.965 15.985 40.361 13.587 4.396-2.398-4.396-39.963 43.958-31.171 0 0-50.751-13.588-48.354 23.179 0 0-29.171-22.38-69.932-2.398.4 0 10.79-34.369-54.347-20.781ZM347.512 164.546c.8 0 1.2.4 1.599.4.4 0-.4-.4-1.599-.4ZM156.497 115.39s-43.158 54.35-49.552 75.132c-6.394 21.18-11.189 107.902-16.783 120.29L70.18 225.29l36.764-89.118 49.552-20.781ZM359.5 115.39s43.159 54.35 49.553 75.132c6.394 21.18 11.189 107.902 16.784 120.29l19.98-85.522-36.764-89.118L359.5 115.39Z" fill="#CCAC8D"/><path d="M357.503 115.39s46.355 38.765 59.942 83.524c13.587 44.76 7.992 99.11 18.382 105.904 14.786 9.591 31.57-47.557 37.164-53.551 8.791-9.592 37.963-33.97 39.961-38.365 1.998-4.396-59.143-71.136-85.917-84.324-32.368-15.186-72.33-16.385-69.532-13.187Z" fill="#56332B"/><path d="M397.064 139.369s54.747 69.936 53.948 157.056l21.979-44.759c-.4 0-19.581-57.148-75.927-112.297Z" fill="#442823"/><path d="M156.497 115.39s-46.355 38.765-59.942 83.524c-13.587 44.76-7.992 99.11-18.382 105.904-14.786 9.591-31.57-47.557-37.164-53.551-8.791-9.592-37.963-33.97-39.961-38.365-1.998-4.396 59.143-71.136 85.917-84.324 32.368-15.186 72.33-16.385 69.532-13.187Z" fill="#56332B"/><path d="M116.936 139.369s-54.747 69.936-53.948 157.056l-21.58-44.759s19.182-57.148 75.528-112.297Z" fill="#442823"/><path d="M87.364 298.024s3.996 21.58 10.39 28.374c6.394 6.794 1.998-5.195 1.998-5.195s-6.793-3.597-5.594-31.172c1.199-27.575-6.794 7.993-6.794 7.993ZM428.234 298.024s-3.996 21.58-10.39 28.374c-6.394 6.794-1.998-5.195-1.998-5.195s6.794-3.597 5.595-31.172c-1.2-27.575 6.793 7.993 6.793 7.993Z" fill="#CCAC8D"/><g transform="translate(190.464 278.442)" fill="#442823"><circle cx="27.573" cy="3.197" r="3.197"/><circle cx="9.191" cy="22.38" r="3.197"/><circle cx="3.197" cy="3.197" r="3.197"/></g><g transform="translate(292.765 278.442)" fill="#442823"><circle cx="3.197" cy="3.197" r="3.197"/><circle cx="21.579" cy="22.38" r="3.197"/><circle cx="27.573" cy="3.197" r="3.197"/></g></g></svg>