<svg xmlns="http://www.w3.org/2000/svg" viewBox="0 0 600 600"><g transform="translate(100)" fill-rule="nonzero" fill="none"><path d="M0 500c0-55.228 44.772-100 100-100h100v100c0 55.228-44.772 100-100 100S0 555.228 0 500Z" fill="#24CB71"/><path d="M200 0v200h100c55.228 0 100-44.772 100-100S355.228 0 300 0H200Z" fill="#FF7237"/><circle fill="#00B6FF" cx="299.167" cy="300" r="100"/><path d="M0 100c0 55.228 44.772 100 100 100h100V0H100C44.772 0 0 44.772 0 100Z" fill="#FF3737"/><path d="M0 300c0 55.228 44.772 100 100 100h100V200H100C44.772 200 0 244.772 0 300Z" fill="#874FFF"/></g></svg>